<svg width="0" height="0" class="hidden" xmlns="http://www.w3.org/2000/svg">
  <symbol viewBox="0 0 27 17" id="menu">
    <rect x="0.48" y="0.5" width="7" height="1"></rect>
    <rect x="0.48" y="7.5" width="7" height="1"></rect>
    <rect x="0.48" y="15.5" width="7" height="1"></rect>
    <rect x="10.56" y="0.5" width="16" height="1"></rect>
    <rect x="10.56" y="7.5" width="16" height="1"></rect>
    <rect x="10.56" y="15.5" width="16" height="1"></rect>
  </symbol>
  <symbol viewBox="0 0 18 17" id="menu-right">
    <rect x="1.56" y="0.5" width="16" height="1"/>
    <rect x="1.56" y="7.5" width="16" height="1"/>
    <rect x="1.56" y="15.5" width="16" height="1"/>
  </symbol>
  <symbol viewBox="0 0 9 17" id="menu-left">
    <rect x="0.48" y="0.5" width="7" height="1"/>
    <rect x="0.48" y="7.5" width="7" height="1"/>
    <rect x="0.48" y="15.5" width="7" height="1"/>
  </symbol>
  <symbol id="carret-down" viewBox="0 0 1024 1024">
    <path
      d="M8.2 275.4c0-8.6 3.4-17.401 10-24.001c13.2-13.2 34.8-13.2 48 0l451.8 451.8l445.2-445.2c13.2-13.2 34.8-13.2 48 0s13.2 34.8 0 48L542 775.399c-13.2 13.2-34.8 13.2-48 0l-475.8-475.8c-6.8-6.8-10-15.4-10-24.199z"/>
  </symbol>
  <symbol id="fullscreen" viewBox="0 0 1024 1024">
    <path
      d="m685.904 383.184l275.264-273.572l-.896 155.072c-.289 12.928 9.967 24.176 22.912 23.888l16.416-.016c12.944-.304 23.648-8 23.92-20.928l.672-231.008c0-.223-.88-.399-.88-.623l1.264-11.712c.128-6.496-1.391-12.288-5.584-16.431c-4.143-4.176-9.951-6.72-16.4-6.544l-11.696.272c-.223 0-.399.08-.64.113L760.77.687c-12.928.288-23.632 10.976-23.92 23.92l-.032 16.417c1.967 15.248 13.952 24.16 26.88 23.872l151.248.4L640.657 337.92c-12.496 12.496-12.496 32.752 0 45.264c12.496 12.48 32.752 12.48 45.247 0zM339.088 640.812L63.825 913.532l.88-154.224c.304-12.944-9.969-24.192-22.897-23.904l-17.423.032c-12.96.32-23.649 8-23.921 20.944l-.672 231.008c0 .224.88.367.88.623l-1.264 11.68c-.144 6.496 1.376 12.32 5.584 16.433c4.128 4.192 9.952 6.72 16.384 6.56l11.712-.288c.223 0 .383-.096.64-.096l230.495 1.008c12.928-.32 23.617-11.009 23.92-23.936l.032-16.432c-1.967-15.216-13.952-24.16-26.88-23.872l-151.247-.4L384.32 686.076c12.496-12.497 12.496-32.752 0-45.248s-32.737-12.512-45.233-.016zm685.122 346.56l-.672-231.01c-.288-12.944-10.992-20.624-23.92-20.944l-16.416-.032c-12.944-.289-23.184 10.975-22.912 23.903l.896 155.072l-275.28-273.552c-12.496-12.496-32.752-12.496-45.248 0s-12.496 32.752 0 45.248L914.93 958.649l-151.232.4c-12.928-.288-24.912 8.657-26.88 23.872l.032 16.432c.304 12.944 11.008 23.633 23.92 23.936l229.504-1.007c.24 0 .416.095.64.095l11.696.288c6.448.16 12.272-2.368 16.4-6.56c4.193-4.128 5.696-9.936 5.584-16.432l-1.263-11.68c0-.255.88-.399.88-.622zM110.049 65.321l151.264-.397c12.928.288 24.912-8.64 26.88-23.873l-.032-16.431C287.84 11.677 277.15.972 264.24.7l-230.512.992c-.256-.032-.416-.112-.64-.112l-11.712-.273C14.945 1.132 9.105 3.676 4.992 7.851C.784 11.995-.735 17.787-.592 24.283L.672 35.995c0 .223-.88.384-.88.624l.672 231.008c.288 12.928 10.977 20.624 23.921 20.928l17.424.015c12.928.288 23.183-10.96 22.895-23.888l-.88-154.224l275.264 272.72c12.48 12.497 32.753 12.497 45.25 0s12.496-32.768 0-45.264z"/>
  </symbol>
  <symbol id="actual" viewBox="0 0 1024 1024">
    <path
      d="m383.2 346.8l-.673-231.011c-.288-12.928-10.992-20.624-23.92-20.928l-16.416-.015c-12.944-.288-23.184 10.975-22.912 23.887l.896 155.248L53.903 10.253c-12.496-12.496-32.752-12.496-45.248 0s-12.496 32.752 0 45.248l265.12 262.608l-151.088.4c-12.928-.287-24.912 8.64-26.88 23.873l.032 16.416c.32 12.944 11.009 23.648 23.92 23.936l229.505-1.007c.256.015.416.11.64.11l11.696.273c6.448.176 12.272-2.352 16.4-6.545c4.208-4.143 5.712-9.95 5.584-16.431l-1.263-11.712c.015-.224.88-.4.88-.623zm262.783 28.765c4.128 4.176 9.952 6.724 16.4 6.548l11.697-.273c.223 0 .383-.08.64-.112l229.503 1.008c12.928-.288 23.617-10.992 23.92-23.937l.032-16.416c-1.967-15.248-13.952-24.16-26.88-23.872l-151.087-.4l265.12-262.608c12.496-12.496 12.496-32.752 0-45.248s-32.752-12.496-45.248 0L703.824 273.967l.88-155.232c.303-12.928-9.953-24.176-22.897-23.888l-16.416.016c-12.96.304-23.648 8-23.92 20.928l-.673 231.008c0 .223.88.383.88.624l-1.264 11.711c-.143 6.497 1.36 12.289 5.569 16.432zM378.016 647.426c-4.144-4.176-9.952-6.705-16.4-6.545l-11.697.288c-.223 0-.383.096-.64.111l-229.52-1.007c-12.927.303-23.616 10.992-23.92 23.92l-.031 16.431c1.967 15.216 13.952 24.16 26.88 23.857l151.247.4L8.655 968.497c-12.496 12.496-12.496 32.752 0 45.248c12.497 12.496 32.752 12.496 45.248 0l266.272-264.576l-.896 156.08c-.288 12.944 9.968 24.192 22.912 23.904l16.416-.032c12.944-.32 23.648-8 23.92-20.928l.673-231.008c0-.223-.88-.367-.88-.607l1.264-12.704c.143-6.496-1.36-12.288-5.569-16.448zm372.046 57.47l151.249-.4c12.928.303 24.912-8.641 26.88-23.857l-.032-16.431c-.32-12.945-11.01-23.633-23.921-23.921H674.734c-.256-.016-.416-.112-.64-.112l-13.696-.272c-6.448-.176-12.288 4.352-16.4 8.545c-4.209 4.143-5.712 9.935-5.585 16.431l1.264 11.697c0 .24-.88.384-.88.607l.672 231.008c.288 12.928 10.977 20.608 23.921 20.928l17.424.032c12.944.288 23.184-10.976 22.896-23.903l-.88-154.528l267.264 263.024c12.497 12.496 32.752 12.496 45.248 0c12.496-12.496 12.497-32.752 0-45.248z"/>
  </symbol>
  <symbol id="bell" viewBox="0 0 1024 1024">
    <path
      d="M905.616 711.888c-37.344-45.424-88.48-109.742-88.48-175.358V327.57c0-180.016-134.64-326.479-306.688-326.479c-172.08 0-305.664 146.464-305.664 326.479v208.96c0 64.512-55.489 125.487-90.672 172.799c-31.649 42.512-56.624 76.096-39.76 109.664c14.832 29.536 51.968 33.328 82.655 33.328h183.36c.048 94.208 76.448 170.576 170.672 170.576c94.24 0 170.641-76.368 170.688-170.576h187.664c19.52 0 65.152 0 80.863-33.2c15.857-33.616-9.52-64.513-44.64-107.232zm-394.609 243.97c-57.216 0-103.632-46.352-103.712-103.536h207.424c-.08 57.184-46.464 103.535-103.712 103.535zm358.384-171.665H157.006c-4.896 0-8.991-.16-12.367-.368c6.592-10.208 16.271-23.248 24.143-33.857c38.993-52.4 104.145-126.368 104.145-213.424v-208.96c0-142.464 103.04-258.352 237.521-258.352S749.01 185.12 749.01 327.584v208.96c0 90.016 60.08 165.248 103.968 218.608c7.392 8.993 16.24 19.76 23.12 28.96c-2.033.048-4.273.08-6.705.08z"/>
  </symbol>

  <symbol id="close" viewBox="0 0 1024 1024">
    <path
      d="M512 0C229.232 0 0 229.232 0 512c0 282.784 229.232 512 512 512c282.784 0 512-229.216 512-512C1024 229.232 794.784 0 512 0zm0 961.008c-247.024 0-448-201.984-448-449.01c0-247.024 200.976-448 448-448s448 200.977 448 448s-200.976 449.01-448 449.01zm181.008-630.016c-12.496-12.496-32.752-12.496-45.248 0L512 466.752l-135.76-135.76c-12.496-12.496-32.752-12.496-45.264 0c-12.496 12.496-12.496 32.752 0 45.248L466.736 512l-135.76 135.76c-12.496 12.48-12.496 32.769 0 45.249c12.496 12.496 32.752 12.496 45.264 0L512 557.249l135.76 135.76c12.496 12.496 32.752 12.496 45.248 0c12.496-12.48 12.496-32.769 0-45.249L557.248 512l135.76-135.76c12.512-12.512 12.512-32.768 0-45.248z"/>
  </symbol>
</svg>
